# xmcd
#
# Track frame offsets: 
#        150
#        14801
#        28490
#        42813
#        57277
#        69804
#        85059
#        97336
#        111977
#        123449
#        137613
#        150219
#        164424
#        177005
#        188519
#        199742
#        214322
#        227557
#        240983
#        253796
#        266316
#        279804
#        292418
#
# Disc length: 4049 seconds
#
# Revision: 1
# Processed by: cddbd v1.5.2PL0 Copyright (c) Steve Scherf et al.
# Submitted via: ExactAudioCopy v1.0b3
#
DISCID=450fcf17
DTITLE=Sara Martin - In Chronological Order Vol. 4 (1925-1928)
DYEAR=1995
DGENRE=Blues
TTITLE0=Your Going Ain't Giving Me The Blues
TTITLE1=What More Can A Monkey Woman Do
TTITLE2=Some Of These Mornings
TTITLE3=Yes, Sir, That's My Baby
TTITLE4=Alabamy Bound
TTITLE5=That Dance Called Messin' Around
TTITLE6=The Last Time
TTITLE7=What's The Matter Now?
TTITLE8=I Want Every Bit Of It I Don't Like It Second Hand
TTITLE9=Brother Ben
TTITLE10=The Prisoner's Blues
TTITLE11=Careless Man Blues
TTITLE12=How Could I Be Blue
TTITLE13=Late Last Night
TTITLE14=Some Sweet Day
TTITLE15=Cushion Foot Stomp
TTITLE16=Take Your Black Bottom Outside
TTITLE17=Hole In The Wall
TTITLE18=Don't Turn Your Back On Me
TTITLE19=Death Sting Me Blues
TTITLE20=Mean Tight Mama
TTITLE21=Mistreating Man Blues
TTITLE22=Kitchen Man Blues
EXTD=
EXTT0=
EXTT1=
EXTT2=
EXTT3=
EXTT4=
EXTT5=
EXTT6=
EXTT7=
EXTT8=
EXTT9=
EXTT10=
EXTT11=
EXTT12=
EXTT13=
EXTT14=
EXTT15=
EXTT16=
EXTT17=
EXTT18=
EXTT19=
EXTT20=
EXTT21=
EXTT22=
PLAYORDER=
